<svg xmlns="http://www.w3.org/2000/svg" viewBox="0 0 64 64" role="img" aria-label="Organizador de Cobro">
  <defs>
    <linearGradient id="bg" x1="10" y1="6" x2="54" y2="58" gradientUnits="userSpaceOnUse">
      <stop offset="0" stop-color="#173359"/>
      <stop offset="0.56" stop-color="#11223b"/>
      <stop offset="1" stop-color="#0a7cff"/>
    </linearGradient>
    <linearGradient id="cardBack" x1="18" y1="17" x2="43" y2="43" gradientUnits="userSpaceOnUse">
      <stop offset="0" stop-color="#d8eaff"/>
      <stop offset="1" stop-color="#9bc6ff"/>
    </linearGradient>
    <linearGradient id="cardFront" x1="18" y1="20" x2="46" y2="46" gradientUnits="userSpaceOnUse">
      <stop offset="0" stop-color="#ffffff"/>
      <stop offset="1" stop-color="#e7f1ff"/>
    </linearGradient>
    <linearGradient id="pocket" x1="34" y1="31" x2="50" y2="40" gradientUnits="userSpaceOnUse">
      <stop offset="0" stop-color="#17b3b5"/>
      <stop offset="1" stop-color="#0b7a9b"/>
    </linearGradient>
    <radialGradient id="glow" cx="0" cy="0" r="1" gradientUnits="userSpaceOnUse" gradientTransform="translate(20 16) rotate(43) scale(28)">
      <stop offset="0" stop-color="#ffffff" stop-opacity="0.26"/>
      <stop offset="1" stop-color="#ffffff" stop-opacity="0"/>
    </radialGradient>
  </defs>

  <rect width="64" height="64" rx="20" fill="url(#bg)"/>
  <rect width="64" height="64" rx="20" fill="url(#glow)"/>
  <circle cx="50" cy="14" r="5.5" fill="#ffd166"/>
  <circle cx="17" cy="50" r="6.5" fill="#79c7ff" opacity="0.18"/>

  <g transform="rotate(-7 32 32)">
    <rect x="17.5" y="18.5" width="24" height="28" rx="8" fill="url(#cardBack)" opacity="0.95"/>
    <rect x="21" y="15.5" width="26" height="31" rx="9" fill="#cfe3ff" opacity="0.3"/>
    <rect x="20" y="18" width="28" height="31" rx="9" fill="url(#cardFront)"/>
    <circle cx="27.5" cy="27" r="4.4" fill="#11223b"/>
    <path d="M22.5 41c1.4-5 5.2-7.5 11.2-7.5S43.3 36 44.7 41" fill="#dbe9ff"/>
    <path d="M24.5 23.5h18" stroke="#8cbcff" stroke-linecap="round" stroke-width="2.4"/>
    <path d="M24.5 30.2h13.5" stroke="#bfd7ff" stroke-linecap="round" stroke-width="2.4"/>
  </g>

  <g transform="translate(0 1)">
    <path d="M35.5 30.5h11c2.48 0 4.5 2.02 4.5 4.5v6c0 2.48-2.02 4.5-4.5 4.5h-11c-2.48 0-4.5-2.02-4.5-4.5v-6c0-2.48 2.02-4.5 4.5-4.5Z" fill="url(#pocket)"/>
    <circle cx="44.6" cy="38" r="2.4" fill="#ffd166"/>
    <circle cx="44.6" cy="38" r="1" fill="#fff4cc"/>
  </g>
</svg>
