<?xml version="1.0" encoding="UTF-8"?>
<!DOCTYPE svg PUBLIC "-//W3C//DTD SVG 1.1//EN" "http://www.w3.org/Graphics/SVG/1.1/DTD/svg11.dtd">
<!-- Creator: CorelDRAW 2019 (64-Bit) -->
<svg xmlns="http://www.w3.org/2000/svg" xml:space="preserve" width="100%" height="100%" version="1.1" style="shape-rendering:geometricPrecision; text-rendering:geometricPrecision; image-rendering:optimizeQuality; fill-rule:evenodd; clip-rule:evenodd"
viewBox="0 0 2136.9 2271.11"
 xmlns:xlink="http://www.w3.org/1999/xlink">
 <defs>
  <style type="text/css">
   <![CDATA[
    .fil0 {fill:#FEFEFE;fill-rule:nonzero}
   ]]>
  </style>
 </defs>
 <g id="__x0023_Layer_x0020_1">
  <metadata id="CorelCorpID_0Corel-Layer"/>
  <g id="_1851317099632">
   <g>
    <polygon class="fil0" points="226.18,551.94 651.53,551.94 651.53,1289.56 854.09,1289.56 854.09,551.52 1259.39,551.52 1480.3,832.14 1480.3,551.94 1914.09,551.94 1070.14,0 "/>
    <polygon class="fil0" points="249.81,632.96 249.81,1691.28 1259.18,1691.28 1259.18,1252.43 1610.26,1691.28 1883.71,1691.28 1883.71,632.96 1561.32,632.96 1561.32,1075.2 1215.3,631.28 938.48,631.28 938.48,1373.96 572.2,1373.96 572.2,632.96 "/>
    <path class="fil0" d="M152.33 667.15c-5.41,0 -10.29,2.61 -13.87,6.8 -0.12,0.19 -0.25,0.35 -0.37,0.53 -84,122.89 -138.09,312.63 -138.09,526.06 0,213.43 54.08,403.17 138.09,526.06 0.12,0.18 0.25,0.34 0.37,0.52 3.58,4.19 8.47,6.8 13.87,6.8 10.95,0 19.83,-10.58 19.83,-23.63l0 -1019.5c0,-13.05 -8.88,-23.63 -19.83,-23.63z"/>
    <path class="fil0" d="M1984.56 667.15c5.41,0 10.3,2.61 13.87,6.8 0.12,0.19 0.26,0.35 0.37,0.53 84.01,122.89 138.09,312.63 138.09,526.06 0,213.43 -54.08,403.17 -138.09,526.06 -0.12,0.18 -0.26,0.34 -0.37,0.52 -3.58,4.19 -8.46,6.8 -13.87,6.8 -10.95,0 -19.83,-10.58 -19.83,-23.63l0 -1019.5c0,-13.05 8.88,-23.63 19.83,-23.63z"/>
    <path class="fil0" d="M1882.5 1771.46l-316.72 0 -223.04 -282.73 0 282.73 -274.55 0 -0.26 0 -814.31 0c-25.69,0 -46.52,20.92 -46.52,46.73 0,7.59 2.21,14.46 5.4,20.8l4.43 6.61c1.64,2.2 2.97,4.56 4.96,6.43 193.82,259.07 497.46,418.21 846.04,419.08l0 0c0.04,0 0.08,-0 0.13,-0 0,0 0.08,0 0.13,0l0 -0c348.57,-0.87 652.22,-160.01 846.04,-419.08 1.99,-1.88 3.32,-4.23 4.96,-6.43l4.43 -6.61c3.2,-6.33 5.41,-13.21 5.41,-20.8 0,-25.81 -20.83,-46.73 -46.52,-46.73z"/>
   </g>
  </g>
 </g>
</svg>
