<?xml version="1.0" encoding="utf-8"?>
<!-- Generator: Adobe Illustrator 27.7.0, SVG Export Plug-In . SVG Version: 6.00 Build 0)  -->
<svg version="1.1" id="Capa_1" xmlns="http://www.w3.org/2000/svg" xmlns:xlink="http://www.w3.org/1999/xlink" x="0px" y="0px"
	 viewBox="0 0 205.9 124.2" style="enable-background:new 0 0 205.9 124.2;" xml:space="preserve">
<style type="text/css">
	.st0{fill:#606262;}
	.st1{fill-rule:evenodd;clip-rule:evenodd;fill:#606262;}
</style>
<g>
	<path class="st0" d="M104.9,1.3h99.3v103.6h-28.5c0.1-0.7,0.3-1.5,0.4-2.3l23.3-2.5V86.3l-23.2-2.4c-0.7-4.4-1.8-8.7-3.4-12.7
		l18.9-13.8l-6.9-11.9l-21.3,9.5c-2.8-3.4-5.9-6.6-9.3-9.3l9.5-21.4l-11.9-6.9L138,36.2c-4-1.6-8.3-2.7-12.7-3.4l-2.5-23.4h-13.8
		l-2.5,23.4c-0.6,0.1-1.2,0.2-1.7,0.3L104.9,1.3L104.9,1.3z"/>
	<path class="st1" d="M56.8,87.8c0,5.3-1.8,9.5-5.4,12.6c-3.6,3.2-8.6,4.7-15.1,4.7H0.9V44h29.6c3.8,0,7.2,0.4,10,1.1
		c2.9,0.7,5.2,1.8,6.9,3.1c1.7,1.3,3,2.8,3.9,4.5c0.9,1.7,1.3,3.6,1.3,5.7c0,2.2-0.4,4.3-1.3,6.2c-0.9,1.9-2,3.4-3.3,4.7
		c-1.3,1.2-2.6,2.1-3.9,2.6c4.2,1.7,7.4,3.7,9.5,6.3C55.7,80.6,56.8,83.8,56.8,87.8L56.8,87.8z M35.3,61.6c0-2.9-1-4.9-2.9-5.9
		c-1.9-1-5-1.5-9.1-1.5h-3.9v14.7h4c4.2,0,7.2-0.5,9.1-1.5C34.3,66.5,35.3,64.5,35.3,61.6L35.3,61.6z M38.3,87.1
		c0-5.2-3.8-7.9-11.4-7.9h-7.5v15.7h7.5C34.5,94.9,38.3,92.3,38.3,87.1L38.3,87.1z"/>
	<path class="st1" d="M123.4,75.7c0,6.3-1.1,11.3-3.4,15.1c-2.3,3.8-5,6.9-8,9.2c-4.4,3.4-10.5,5.2-18.4,5.2h-0.9H60.5V44h25.5
		c3.8,0,7.1,0.2,9.8,0.6c2.7,0.4,5.2,0.9,7.4,1.7c2.2,0.7,4,1.5,5.6,2.4c1.5,0.9,2.9,1.8,4.1,2.9c2.1,1.7,3.9,3.7,5.5,6.1
		c1.6,2.3,2.8,5,3.8,8.1C123,68.8,123.4,72.1,123.4,75.7L123.4,75.7z M104.7,74.9c0-5-1-8.9-2.9-11.6c-1.9-2.8-4.2-4.7-6.9-5.6
		c-2.7-0.9-5.4-1.4-8.1-1.4h-7.9v36.3h7.9c4.8,0,9-1.1,12.6-3.4C102.9,86.8,104.7,82.1,104.7,74.9L104.7,74.9z"/>
	<polygon class="st0" points="145.2,105.2 126.7,105.2 126.7,44 145.2,44 145.2,105.2 	"/>
	<path class="st1" d="M0.9,1.3h7.3c3.8,0,6.8,0.8,8.7,2.4c2,1.6,3,3.8,3,6.7c0,3.4-1.7,6-5.1,7.8c5.4,1.2,8.1,4.1,8.1,8.9
		c0,2.9-1.1,5.1-3.2,6.8c-2.1,1.7-5,2.5-8.6,2.5H0.9V1.3L0.9,1.3z M3.6,3.5v14h3.8c6.4,0,9.6-2.3,9.6-7c0-4.7-3.2-7-9.7-7H3.6
		L3.6,3.5z M3.6,19.8v14.3h7.3c3,0,5.3-0.6,6.8-1.9c1.6-1.3,2.3-3,2.3-5.2c0-4.8-3.5-7.2-10.4-7.2H3.6L3.6,19.8z"/>
	<path class="st1" d="M41.1,32.4v2.1c-2.1,1.6-3.7,2.4-4.7,2.4c-0.6,0-1-0.2-1.2-0.6c-0.2-0.4-0.4-1.2-0.5-2.3
		c-2.4,1.9-4.8,2.9-7.2,2.9c-1.7,0-3.2-0.6-4.4-1.7c-1.2-1.1-1.8-2.5-1.8-4.2c0-2.5,1.2-4.5,3.5-5.9c2.3-1.5,5.7-2.3,10-2.5v-2.9
		c0-3.2-1.7-4.7-5.1-4.7c-2.2,0-4.5,1-7.1,2.9v-2.5c2.6-1.6,5.1-2.5,7.5-2.5c2.1,0,3.8,0.5,5.2,1.6c1.4,1,2,2.5,2,4.5v14.4
		c0,0.8,0.2,1.2,0.6,1.2C38.3,34.5,39.4,33.8,41.1,32.4L41.1,32.4z M34.8,31.8v-7.2c-3.2-0.1-5.8,0.4-7.9,1.7
		c-2.1,1.2-3.1,2.8-3.1,4.7c0,1.1,0.4,2,1.3,2.7c0.9,0.7,2,1.1,3.3,1.1C30.5,34.8,32.6,33.8,34.8,31.8L34.8,31.8z"/>
	<path class="st0" d="M42.4,13.3v4h0.1c1.9-3,4.5-4.5,7.6-4.5c2.6,0,4.7,0.8,6.3,2.5c1.6,1.7,2.3,4,2.3,7v14.1h-2.5V23.2
		c0-5.3-2.1-8-6.3-8c-3.1,0-5.6,1.7-7.6,5v16.2H40V13.3H42.4L42.4,13.3z"/>
	<path class="st0" d="M76.9,13.9v2.7c-2.2-1-4.2-1.5-6-1.5c-2.6,0-4.7,0.9-6.3,2.7c-1.6,1.8-2.4,4.1-2.4,7c0,2.9,0.8,5.2,2.4,7
		c1.6,1.7,3.8,2.6,6.5,2.6c2,0,4.1-0.4,6.2-1.3v2.6c-2.3,0.8-4.5,1.2-6.4,1.2c-3.4,0-6.1-1.1-8.2-3.2c-2.1-2.1-3.1-5-3.1-8.5
		c0-3.6,1-6.6,3.1-8.9c2.1-2.3,4.8-3.5,8.1-3.5C72.5,12.8,74.6,13.2,76.9,13.9L76.9,13.9z"/>
	<path class="st1" d="M88.1,12.8c3.4,0,6.1,1.1,8.4,3.4c2.2,2.3,3.4,5.2,3.4,8.6c0,3.4-1.1,6.3-3.4,8.6c-2.2,2.3-5,3.4-8.4,3.4
		c-3.4,0-6.2-1.1-8.4-3.4c-2.2-2.3-3.4-5.2-3.4-8.6c0-3.4,1.1-6.3,3.4-8.6C82,14,84.8,12.8,88.1,12.8L88.1,12.8z M88.1,34.5
		c2.6,0,4.8-0.9,6.5-2.7c1.7-1.8,2.6-4.1,2.6-6.9c0-2.7-0.9-5-2.6-6.9c-1.7-1.8-3.9-2.8-6.5-2.8c-2.6,0-4.8,0.9-6.6,2.7
		c-1.7,1.8-2.6,4.1-2.6,6.9c0,2.8,0.9,5,2.6,6.9C83.3,33.5,85.5,34.5,88.1,34.5L88.1,34.5z"/>
	<g>
		<path class="st0" d="M10.9,118.8v1.8c-1.2,0.6-2.5,1-4.1,1c-1.3,0-2.3-0.3-3.2-0.8c-0.9-0.5-1.6-1.2-2.1-2.1
			c-0.5-0.9-0.8-1.8-0.8-2.9c0-1.6,0.6-3,1.8-4.1c1.2-1.1,2.6-1.7,4.3-1.7c1.2,0,2.5,0.3,3.9,0.9v1.7c-1.3-0.8-2.6-1.1-3.9-1.1
			c-1.3,0-2.4,0.4-3.2,1.2c-0.9,0.8-1.3,1.8-1.3,3.1c0,1.2,0.4,2.3,1.3,3s1.9,1.2,3.2,1.2C8.3,120.1,9.6,119.7,10.9,118.8z"/>
		<path class="st0" d="M20.7,110.2h1.6v6.4c0,0.9-0.1,1.5-0.2,2s-0.3,0.8-0.5,1.1c-0.2,0.3-0.4,0.6-0.7,0.8
			c-0.9,0.8-2.1,1.2-3.5,1.2c-1.5,0-2.6-0.4-3.5-1.1c-0.3-0.2-0.5-0.5-0.7-0.8c-0.2-0.3-0.3-0.7-0.5-1.1c-0.1-0.4-0.2-1.1-0.2-2
			v-6.4h1.6v6.4c0,1.1,0.1,1.8,0.4,2.2c0.2,0.4,0.6,0.7,1.1,1c0.5,0.2,1.1,0.4,1.7,0.4c1,0,1.7-0.2,2.3-0.7c0.3-0.3,0.5-0.6,0.7-1
			s0.2-1,0.2-1.9V110.2z"/>
		<path class="st0" d="M24.6,110.2H31v1.4h-4.8v3.4h4.6v1.4h-4.6v3.5h4.9v1.4h-6.5V110.2z"/>
		<path class="st0" d="M41.8,110.2h1.5v11.3h-1.4l-7.5-8.7v8.7h-1.5v-11.3h1.3l7.6,8.7V110.2z"/>
		<path class="st0" d="M44.8,110.2h9.4v1.4h-3.9v9.8h-1.6v-9.8h-3.9V110.2z"/>
		<path class="st0" d="M57.6,110.1h1.1l5,11.3h-1.6l-1.5-3.3h-4.8l-1.4,3.3h-1.7L57.6,110.1z M60,116.7l-1.8-4.1l-1.7,4.1H60z"/>
		<path class="st0" d="M67.8,116.7l-1.2-0.7c-0.8-0.5-1.3-0.9-1.6-1.4c-0.3-0.5-0.5-1-0.5-1.6c0-0.9,0.3-1.6,0.9-2.2
			c0.6-0.6,1.4-0.8,2.4-0.8c0.9,0,1.8,0.3,2.6,0.8v1.8c-0.8-0.8-1.7-1.2-2.6-1.2c-0.5,0-1,0.1-1.3,0.4c-0.3,0.2-0.5,0.6-0.5,0.9
			c0,0.3,0.1,0.7,0.4,0.9c0.2,0.3,0.7,0.6,1.2,0.9l1.2,0.7c1.4,0.8,2.1,1.9,2.1,3.1c0,0.9-0.3,1.6-0.9,2.2c-0.6,0.6-1.4,0.8-2.4,0.8
			c-1.1,0-2.1-0.3-3-1v-2c0.9,1.1,1.9,1.7,3,1.7c0.5,0,0.9-0.1,1.3-0.4c0.3-0.3,0.5-0.6,0.5-1.1C69.3,118,68.8,117.3,67.8,116.7z"/>
		<path class="st0" d="M86.9,118.8v1.8c-1.2,0.6-2.5,1-4.1,1c-1.3,0-2.3-0.3-3.2-0.8c-0.9-0.5-1.6-1.2-2.1-2.1
			c-0.5-0.9-0.8-1.8-0.8-2.9c0-1.6,0.6-3,1.8-4.1c1.2-1.1,2.6-1.7,4.3-1.7c1.2,0,2.5,0.3,3.9,0.9v1.7c-1.3-0.8-2.6-1.1-3.9-1.1
			c-1.3,0-2.4,0.4-3.2,1.2c-0.9,0.8-1.3,1.8-1.3,3.1c0,1.2,0.4,2.3,1.3,3s1.9,1.2,3.2,1.2C84.3,120.1,85.6,119.7,86.9,118.8z"/>
		<path class="st0" d="M94.4,110c1.7,0,3.2,0.6,4.3,1.7c1.2,1.1,1.7,2.5,1.7,4.1c0,1.7-0.6,3-1.8,4.1c-1.2,1.1-2.6,1.6-4.4,1.6
			c-1.7,0-3.1-0.5-4.2-1.6c-1.1-1.1-1.7-2.5-1.7-4.1c0-1.7,0.6-3.1,1.7-4.2C91.2,110.6,92.7,110,94.4,110z M94.5,111.5
			c-1.3,0-2.3,0.4-3.2,1.2c-0.8,0.8-1.2,1.8-1.2,3.1c0,1.2,0.4,2.2,1.2,3c0.8,0.8,1.9,1.2,3.1,1.2c1.3,0,2.3-0.4,3.1-1.2
			c0.8-0.8,1.3-1.8,1.3-3.1c0-1.2-0.4-2.2-1.3-3C96.7,112,95.7,111.5,94.5,111.5z"/>
		<path class="st0" d="M111.4,110.2h1.5v11.3h-1.4l-7.5-8.7v8.7h-1.5v-11.3h1.3l7.6,8.7V110.2z"/>
		<path class="st0" d="M128.9,110.2h1.5v11.3H129l-7.5-8.7v8.7H120v-11.3h1.3l7.6,8.7V110.2z"/>
		<path class="st0" d="M138.3,110c1.7,0,3.2,0.6,4.3,1.7c1.2,1.1,1.7,2.5,1.7,4.1c0,1.7-0.6,3-1.8,4.1c-1.2,1.1-2.6,1.6-4.4,1.6
			c-1.7,0-3.1-0.5-4.2-1.6c-1.1-1.1-1.7-2.5-1.7-4.1c0-1.7,0.6-3.1,1.7-4.2C135.2,110.6,136.6,110,138.3,110z M138.4,111.5
			c-1.3,0-2.3,0.4-3.2,1.2c-0.8,0.8-1.2,1.8-1.2,3.1c0,1.2,0.4,2.2,1.2,3c0.8,0.8,1.9,1.2,3.1,1.2c1.3,0,2.3-0.4,3.1-1.2
			c0.8-0.8,1.3-1.8,1.3-3.1c0-1.2-0.4-2.2-1.3-3S139.6,111.5,138.4,111.5z"/>
		<path class="st0" d="M149.2,116.7L148,116c-0.8-0.5-1.3-0.9-1.6-1.4c-0.3-0.5-0.5-1-0.5-1.6c0-0.9,0.3-1.6,0.9-2.2
			c0.6-0.6,1.4-0.8,2.4-0.8c0.9,0,1.8,0.3,2.6,0.8v1.8c-0.8-0.8-1.7-1.2-2.6-1.2c-0.5,0-1,0.1-1.3,0.4c-0.3,0.2-0.5,0.6-0.5,0.9
			c0,0.3,0.1,0.7,0.4,0.9c0.2,0.3,0.7,0.6,1.2,0.9l1.2,0.7c1.4,0.8,2.1,1.9,2.1,3.1c0,0.9-0.3,1.6-0.9,2.2c-0.6,0.6-1.4,0.8-2.4,0.8
			c-1.1,0-2.1-0.3-3-1v-2c0.9,1.1,1.9,1.7,3,1.7c0.5,0,0.9-0.1,1.3-0.4c0.3-0.3,0.5-0.6,0.5-1.1C150.7,118,150.2,117.3,149.2,116.7z
			"/>
		<path class="st0" d="M159.5,110c1.7,0,3.2,0.6,4.3,1.7c1.2,1.1,1.7,2.5,1.7,4.1c0,1.7-0.6,3-1.8,4.1c-1.2,1.1-2.6,1.6-4.4,1.6
			c-1.7,0-3.1-0.5-4.2-1.6c-1.1-1.1-1.7-2.5-1.7-4.1c0-1.7,0.6-3.1,1.7-4.2C156.3,110.6,157.7,110,159.5,110z M159.5,111.5
			c-1.3,0-2.3,0.4-3.2,1.2c-0.8,0.8-1.2,1.8-1.2,3.1c0,1.2,0.4,2.2,1.2,3c0.8,0.8,1.9,1.2,3.1,1.2c1.3,0,2.3-0.4,3.1-1.2
			c0.8-0.8,1.3-1.8,1.3-3.1c0-1.2-0.4-2.2-1.3-3S160.8,111.5,159.5,111.5z"/>
		<path class="st0" d="M165.5,110.2h9.4v1.4H171v9.8h-1.6v-9.8h-3.9V110.2z"/>
		<path class="st0" d="M176.5,121.4v-11.3h2.8c1.1,0,2,0.3,2.7,0.8c0.7,0.6,1,1.3,1,2.3c0,0.7-0.2,1.2-0.5,1.7
			c-0.3,0.5-0.8,0.8-1.4,1.1c0.4,0.2,0.7,0.6,1.1,1s0.8,1.1,1.5,2.1c0.4,0.6,0.7,1.1,0.9,1.4l0.6,0.8h-1.9l-0.5-0.7
			c0,0,0-0.1-0.1-0.1l-0.3-0.4l-0.5-0.8l-0.5-0.9c-0.3-0.5-0.6-0.8-0.9-1.1c-0.3-0.3-0.5-0.5-0.8-0.6c-0.2-0.1-0.6-0.2-1.1-0.2h-0.4
			v4.9H176.5z M178.6,111.5h-0.5v3.6h0.6c0.8,0,1.4-0.1,1.7-0.2s0.5-0.4,0.7-0.6c0.2-0.3,0.3-0.6,0.3-1c0-0.4-0.1-0.7-0.3-1
			c-0.2-0.3-0.5-0.5-0.8-0.6C179.9,111.6,179.4,111.5,178.6,111.5z"/>
		<path class="st0" d="M190.9,110c1.7,0,3.2,0.6,4.3,1.7c1.2,1.1,1.7,2.5,1.7,4.1c0,1.7-0.6,3-1.8,4.1c-1.2,1.1-2.6,1.6-4.4,1.6
			c-1.7,0-3.1-0.5-4.2-1.6c-1.1-1.1-1.7-2.5-1.7-4.1c0-1.7,0.6-3.1,1.7-4.2C187.7,110.6,189.2,110,190.9,110z M191,111.5
			c-1.3,0-2.3,0.4-3.2,1.2c-0.8,0.8-1.2,1.8-1.2,3.1c0,1.2,0.4,2.2,1.2,3c0.8,0.8,1.9,1.2,3.1,1.2c1.3,0,2.3-0.4,3.1-1.2
			c0.8-0.8,1.3-1.8,1.3-3.1c0-1.2-0.4-2.2-1.3-3S192.2,111.5,191,111.5z"/>
		<path class="st0" d="M201.8,116.7l-1.2-0.7c-0.8-0.5-1.3-0.9-1.6-1.4c-0.3-0.5-0.5-1-0.5-1.6c0-0.9,0.3-1.6,0.9-2.2
			c0.6-0.6,1.4-0.8,2.4-0.8c0.9,0,1.8,0.3,2.6,0.8v1.8c-0.8-0.8-1.7-1.2-2.6-1.2c-0.5,0-1,0.1-1.3,0.4c-0.3,0.2-0.5,0.6-0.5,0.9
			c0,0.3,0.1,0.7,0.4,0.9c0.2,0.3,0.7,0.6,1.2,0.9l1.2,0.7c1.4,0.8,2.1,1.9,2.1,3.1c0,0.9-0.3,1.6-0.9,2.2c-0.6,0.6-1.4,0.8-2.4,0.8
			c-1.1,0-2.1-0.3-3-1v-2c0.9,1.1,1.9,1.7,3,1.7c0.5,0,0.9-0.1,1.3-0.4c0.3-0.3,0.5-0.6,0.5-1.1C203.3,118,202.8,117.3,201.8,116.7z
			"/>
	</g>
</g>
</svg>
