<svg xmlns="http://www.w3.org/2000/svg" xmlns:xlink="http://www.w3.org/1999/xlink" height="80"
    viewBox="0 0 256.341 100.461">
    <defs>
        <linearGradient class="aLogo" y1="24.326" x2="1" y2="24.326"
            gradientUnits="objectBoundingBox">
            <stop offset="0" stop-color="#1b92d0"></stop>
            <stop offset="0.545" stop-color="#0961ad"></stop>
        </linearGradient>
    </defs>
    <g transform="translate(-281.659 -45.316)">
        <g transform="translate(312.927 125.308)">
            <path
                d="M88.695,141.282l-25.288,16.8c-3.269-4.645-6.365-9.519-9.576-14.279,11.583-.229,23.855.917,32.858-5.5h.229Z"
                transform="translate(-53.83 -138.3)" fill="rgb(9, 97, 173)"></path>
            <path
                d="M88.695,141.282l-25.288,16.8c-3.269-4.645-6.365-9.519-9.576-14.279,11.583-.229,23.855.917,32.858-5.5h.229Z"
                transform="translate(-53.83 -138.3)" fill="none" stroke="#fff" stroke-width="1"></path>
        </g>
        <g transform="translate(290.784 61.083)">
            <path
                d="M94.759,59.559H51.695a2.183,2.183,0,0,0-1.434,1.778H15.224c-.287-12.9,7.168-24.772,18.637-31.023A36.094,36.094,0,0,1,48.541,26.3H72.8Z"
                transform="translate(-15.216 -26.3)" fill="#0961ad"></path>
            <path
                d="M94.759,59.559H51.695a2.183,2.183,0,0,0-1.434,1.778H15.224c-.287-12.9,7.168-24.772,18.637-31.023A36.094,36.094,0,0,1,48.541,26.3H72.8Z"
                transform="translate(-15.216 -26.3)" fill="none" stroke="#fff" stroke-width="1"></path>
        </g>
        <g transform="translate(282.592 95.031)">
            <path
                d="M80.637,85.5a35.1,35.1,0,0,1-33.317,35.094l-24.256.115L.93,87.45H44.282c.745-.229,1.09-1.262,1.434-1.892H80.637Z"
                transform="translate(-0.93 -85.5)" fill="#00a44f"></path>
            <path
                d="M80.637,85.5a35.1,35.1,0,0,1-33.317,35.094l-24.256.115L.93,87.45H44.282c.745-.229,1.09-1.262,1.434-1.892H80.637Z"
                transform="translate(-0.93 -85.5)" fill="none" stroke="#fff" stroke-width="1"></path>
        </g>
        <path
            d="M75.252,14.451c-10.494.057-21.963-1.262-30.507,4.014l-2.523,1.491-1.892-3.1L65.561,0C68.887,4.7,72.1,9.634,75.252,14.451Z"
            transform="translate(264.855 46.002)" fill="#00a44f" stroke="#fff" stroke-width="1"></path>
        <g transform="translate(378.356 66.531)">
            <path
                d="M169.73,36.316a53.278,53.278,0,0,1,7.225-.516c3.441,0,5.5.344,7.34,1.376a5.4,5.4,0,0,1,2.925,4.874c0,2.179-1.262,4.186-4.071,5.276v.057A6.151,6.151,0,0,1,188.08,53.4a6.574,6.574,0,0,1-2.58,5.276c-1.778,1.434-4.817,2.236-9.691,2.236a44.97,44.97,0,0,1-6.021-.344l-.057-24.256Zm5.5,9.462h1.835c2.982,0,4.53-1.2,4.53-3.039,0-1.892-1.434-2.867-3.957-2.867a19.072,19.072,0,0,0-2.408.115Zm0,10.953c.573.057,1.2.057,2.179.057,2.523,0,4.76-.975,4.76-3.613,0-2.466-2.236-3.441-5.046-3.441h-1.892v7Z"
                transform="translate(-168.698 -35.8)" fill="#0961ad"></path>
            <path
                d="M219.6,61.192a22.942,22.942,0,0,0,.287,4.358h-5.046l-.344-1.778h-.115a6.382,6.382,0,0,1-5.161,2.179,5.471,5.471,0,0,1-5.792-5.5c0-4.645,4.186-6.824,10.494-6.824v-.229c0-.975-.516-2.351-3.268-2.351a9.8,9.8,0,0,0-4.932,1.376l-1.032-3.613A14.941,14.941,0,0,1,211.63,47.2c5.964,0,7.856,3.555,7.856,7.741v6.25Zm-5.39-4.129c-2.924,0-5.218.688-5.218,2.81a2,2,0,0,0,2.179,2.122,3,3,0,0,0,2.867-2.064,5.05,5.05,0,0,0,.115-.975l.057-1.892Z"
                transform="translate(-183.073 -40.663)" fill="#0961ad"></path>
            <path
                d="M236.745,53.378c0-2.236-.058-4.129-.115-5.734h4.817l.229,2.523h.115a6.51,6.51,0,0,1,5.562-2.867c3.67,0,6.422,2.466,6.422,7.741V65.65h-5.562v-9.92c0-2.294-.8-3.9-2.81-3.9a3.032,3.032,0,0,0-2.867,2.064,4.737,4.737,0,0,0-.172,1.376V65.593H236.8l-.057-12.214Z"
                transform="translate(-197.235 -40.705)" fill="#0961ad"></path>
            <path
                d="M284.538,65.034a13.011,13.011,0,0,1-4.989.86c-5.792,0-9.519-3.555-9.519-9.175,0-5.276,3.613-9.519,10.264-9.519a12.2,12.2,0,0,1,4.243.688l-.86,4.129a7.79,7.79,0,0,0-3.1-.573c-2.924,0-4.817,2.064-4.817,5.046a4.694,4.694,0,0,0,4.932,5.046,8.471,8.471,0,0,0,3.211-.573Z"
                transform="translate(-211.482 -40.663)" fill="#0961ad"></path>
            <path
                d="M314.381,56.374c0,6.537-4.645,9.576-9.462,9.576-5.275,0-9.29-3.441-9.29-9.232,0-5.849,3.785-9.519,9.634-9.519C310.654,47.142,314.381,50.927,314.381,56.374Zm-13.017.172c0,3.1,1.262,5.39,3.67,5.39,2.179,0,3.555-2.179,3.555-5.448,0-2.638-1.032-5.39-3.555-5.39C302.4,51.156,301.364,53.909,301.364,56.547Z"
                transform="translate(-222.402 -40.662)" fill="#0961ad"></path>
            <path
                d="M169.134,107.125a13.665,13.665,0,0,0,6.193,1.548c2.581,0,3.9-1.032,3.9-2.7,0-1.548-1.147-2.408-4.129-3.441-4.129-1.491-6.824-3.727-6.824-7.34,0-4.243,3.555-7.4,9.347-7.4a14.689,14.689,0,0,1,6.308,1.262l-1.262,4.473a12.013,12.013,0,0,0-5.161-1.147c-2.408,0-3.613,1.147-3.613,2.408,0,1.606,1.376,2.294,4.587,3.5,4.358,1.606,6.365,3.9,6.365,7.4,0,4.129-3.154,7.684-9.92,7.684a16.416,16.416,0,0,1-7-1.548Z"
                transform="translate(-167.93 -57.981)" fill="#0961ad"></path>
            <path
                d="M215.943,113.549a22.938,22.938,0,0,0,.287,4.358h-5.046l-.344-1.835h-.057a6.382,6.382,0,0,1-5.161,2.179,5.471,5.471,0,0,1-5.792-5.505c0-4.645,4.186-6.824,10.494-6.824v-.229c0-.975-.516-2.351-3.269-2.351a9.8,9.8,0,0,0-4.932,1.376l-1.032-3.613A14.941,14.941,0,0,1,208.03,99.5c5.964,0,7.856,3.555,7.856,7.741v6.308Zm-5.39-4.129c-2.925,0-5.218.688-5.218,2.81a2,2,0,0,0,2.179,2.122,3,3,0,0,0,2.867-2.064,5.053,5.053,0,0,0,.115-.975l.057-1.892Z"
                transform="translate(-181.537 -62.972)" fill="#0961ad"></path>
            <path
                d="M233.045,105.778c0-2.236-.057-4.129-.115-5.734h4.817l.229,2.523h.115a6.51,6.51,0,0,1,5.562-2.867c3.67,0,6.423,2.466,6.423,7.741V118.05h-5.562v-9.978c0-2.294-.8-3.9-2.81-3.9a3.032,3.032,0,0,0-2.867,2.064,4.737,4.737,0,0,0-.172,1.376v10.322H233.1l-.057-12.157Z"
                transform="translate(-195.657 -63.057)" fill="#0961ad"></path>
            <path
                d="M272.643,91.8v4.817h4.014v4.129h-4.014v6.48c0,2.179.573,3.154,2.179,3.154a11.863,11.863,0,0,0,1.663-.115l.057,4.243a12.848,12.848,0,0,1-3.613.459,6.06,6.06,0,0,1-4.243-1.548c-1.032-1.09-1.548-2.81-1.548-5.333v-7.34H264.73V96.674h2.409V93.348Z"
                transform="translate(-209.221 -59.688)" fill="#0961ad"></path>
            <path
                d="M302.6,113.549a22.963,22.963,0,0,0,.287,4.358h-5.046l-.344-1.835h-.115a6.382,6.382,0,0,1-5.161,2.179,5.471,5.471,0,0,1-5.792-5.505c0-4.645,4.186-6.824,10.494-6.824v-.229c0-.975-.516-2.351-3.269-2.351a9.8,9.8,0,0,0-4.932,1.376l-1.032-3.613A14.94,14.94,0,0,1,294.63,99.5c5.964,0,7.856,3.555,7.856,7.741l.115,6.308Zm-5.39-4.129c-2.924,0-5.218.688-5.218,2.81a1.974,1.974,0,0,0,2.179,2.122,3,3,0,0,0,2.867-2.064,5.05,5.05,0,0,0,.115-.975l.057-1.892Z"
                transform="translate(-218.478 -62.972)" fill="#0961ad"></path>
            <path
                d="M347.7,112.228a16.815,16.815,0,0,1-6.308,1.032c-8.544,0-12.96-5.39-12.96-12.386,0-8.43,6.021-13.074,13.476-13.074a14.574,14.574,0,0,1,6.078,1.089L346.837,93.3a12.147,12.147,0,0,0-4.7-.917c-4.416,0-7.856,2.7-7.856,8.2,0,4.932,2.925,8.085,7.856,8.085a13.847,13.847,0,0,0,4.7-.8Z"
                transform="translate(-236.394 -57.981)" fill="#0961ad"></path>
            <path
                d="M365.245,105.908c0-2.638-.057-4.358-.115-5.906h4.76l.229,3.326h.115A5.224,5.224,0,0,1,375.05,99.6a5.909,5.909,0,0,1,1.147.115v5.276a10.537,10.537,0,0,0-1.491-.115,3.521,3.521,0,0,0-3.784,2.81,7.894,7.894,0,0,0-.115,1.262v9.118h-5.562V105.908Z"
                transform="translate(-252.049 -63.015)" fill="#0961ad"></path>
            <path
                d="M403.8,112.414c0,2.351.057,4.243.115,5.734H399.1l-.229-2.523h-.115a6.445,6.445,0,0,1-5.62,2.924c-3.67,0-6.308-2.294-6.308-7.8V100.2h5.562v9.634c0,2.638.86,4.186,2.81,4.186a3.032,3.032,0,0,0,2.81-1.95,3.748,3.748,0,0,0,.23-1.2V100.2H403.8v12.214Z"
                transform="translate(-261.305 -63.271)" fill="#0961ad"></path>
            <path
                d="M419.13,115.037l5.677-7.053c1.032-1.147,1.835-2.064,2.81-3.154v-.057h-7.856V100.3h14.68v3.383l-5.39,6.767a40.771,40.771,0,0,1-2.925,3.269v.057h8.6v4.473h-15.6v-3.211Z"
                transform="translate(-275.083 -63.313)" fill="#0961ad"></path>
        </g>
    </g>
</svg>