<?xml version="1.0" encoding="UTF-8"?>
<svg id="Layer_2" data-name="Layer 2" xmlns="http://www.w3.org/2000/svg" viewBox="0 0 55.34 55.36">
  <defs>
    <style>
      .cls-1 {
        fill: #1b449c;
      }

      .cls-2 {
        fill: #257ce1;
      }
    </style>
  </defs>
  <g id="Layer_2-2" data-name="Layer 2">
    <g>
      <path class="cls-2" d="M29.05,1.09s.05-.09.07-.13c0,0,.02-.03.03-.04.02-.04.05-.08.08-.12.01,0,.02-.03.03-.04.03-.04.06-.07.09-.1.02-.02.03-.03.05-.05.03-.03.06-.06.09-.09.02-.02.04-.03.06-.05.03-.02.07-.05.1-.08.02-.02.05-.03.07-.04.03-.02.07-.04.1-.06s.06-.03.09-.04c.04-.02.07-.03.11-.05.03-.01.07-.02.1-.04.04-.01.07-.03.11-.04.04,0,.08-.02.12-.03.04,0,.07-.02.11-.03.05,0,.1,0,.14-.02.04,0,.07-.01.11-.02h.56c.1,0,.19,0,.28,0,.03,0,.06,0,.09,0,.06,0,.12,0,.18.02.03,0,.06,0,.09.02.05,0,.11.02.16.04.03,0,.05.02.08.02.05.01.1.03.15.05.02,0,.04.02.07.03.05.02.1.04.15.07,0,0,.03,0,.04.02.05.03.11.06.16.09h0c.52.34.78.88.83,1.48l-.18,8.78h0c0,.53.34,1.03.87,1.25s1.12.11,1.5-.25h0l6.12-6.29c.46-.39,1.03-.58,1.64-.45h0c.06.01.12.03.18.05.02,0,.03,0,.05.01.05.02.1.04.15.06.02,0,.04.02.06.03.05.02.09.05.14.07.03.01.05.03.07.04.05.03.09.05.14.09.03.02.05.03.08.05.05.03.09.07.14.11.02.02.04.04.07.05.07.06.14.12.21.19.08.07.15.13.21.2.02.02.04.05.06.07.04.04.08.09.12.13.02.03.04.06.07.09.03.04.06.08.09.12.02.03.04.06.06.1s.04.07.06.11.03.07.05.11c.02.03.03.07.05.1,0,.04.03.07.04.11,0,.03.02.06.03.09,0,.04.02.08.03.12,0,.03,0,.06.02.08,0,.04,0,.08.02.12v.26c0,.05,0,.09,0,.14v.05c0,.05-.02.09-.03.14,0,.01,0,.03,0,.04,0,.05-.03.1-.05.14,0,.01,0,.02,0,.04-.02.05-.04.1-.06.15,0,0,0,.02,0,.03-.02.05-.05.1-.08.15v.02c-.03.05-.07.1-.1.15h0c-.04.05-.08.1-.12.15h0l-.16.17-.1.11s-.09.09-.14.13l-10.21,10.21-.09.08-.77.77s0,.01-.02.02l-.45.45s-.69.66-1.78.19l-.56-.24-.27-.11-.27-.11-.56-.23c-1.11-.44-1.12-1.39-1.12-1.39v-1.87l.09-14.44v-.56h.01c0-.07.02-.13.03-.19h0c.01-.06.02-.12.04-.18v-.02c.01-.06.03-.11.05-.16v-.03s.04-.1.06-.15c0,0,.01-.02.02-.04h0Z"/>
      <path class="cls-1" d="M47.45,9.86s.1-.03.15-.04h.04s.09-.02.14-.03h.05s.09,0,.13-.01h.27s.08,0,.12.02c.03,0,.05.01.08.02.04,0,.08.02.12.03.03,0,.06.02.09.03.04.01.08.03.11.04s.07.03.1.05.07.03.1.05c.04.02.07.04.11.06.03.02.06.04.1.06.04.03.08.06.12.09.03.02.06.04.09.07.04.04.09.08.13.12.02.02.05.04.07.06.07.07.13.14.2.21s.13.14.19.21c.02.02.04.04.05.07.04.05.08.09.11.14.02.03.03.05.05.08.03.04.06.09.09.14,0,.02.03.05.04.08.02.05.05.09.07.14,0,.02.02.04.03.07.02.05.04.1.06.15,0,.02,0,.03,0,.05.02.06.03.12.05.18v.02c.12.61-.07,1.18-.46,1.63l-6.33,6.08h0c-.37.38-.49.97-.26,1.5.21.53.71.87,1.24.88h0l8.78-.12c.6.05,1.13.32,1.48.84h0c.03.06.06.11.09.17,0,.01,0,.03.02.04.03.05.05.1.07.15,0,.02.02.04.03.07.02.05.03.1.05.15,0,.03.02.05.02.08,0,.05.02.1.03.16,0,.03.02.06.02.09,0,.06.02.12.02.18v.09c0,.09,0,.19,0,.28v.38c0,.06,0,.12,0,.18,0,.04,0,.07-.02.11,0,.05,0,.09-.02.14,0,.04-.02.07-.03.11,0,.04-.02.08-.03.12s-.02.07-.04.11c0,.03-.02.07-.04.1,0,.04-.03.07-.05.11-.02.03-.03.06-.04.08-.02.04-.04.07-.06.1-.02.02-.03.05-.05.07-.02.04-.05.07-.07.1-.02.02-.03.04-.05.06-.03.03-.06.06-.09.09-.02.01-.03.03-.05.05-.03.03-.07.06-.1.09,0,.01-.03.02-.05.03-.04.03-.08.05-.12.08,0,0-.03.02-.04.02-.04.03-.09.05-.13.07,0,0-.02.01-.03.02-.05.02-.1.04-.15.06h-.03s-.11.04-.16.05h-.02c-.06.02-.12.03-.18.04h0c-.07,0-.13.02-.2.02h-.22s-.15.01-.15.01h-16.5s-.95-.02-1.38-1.12l-.23-.56-.11-.27-.11-.27-.23-.56c-.47-1.09.2-1.77.2-1.77l.45-.45s0-.01.02-.02l.78-.77.08-.08,10.27-10.15s.09-.09.13-.14l.11-.1.16-.16h0s.1-.07.16-.11h0s.1-.07.15-.1h.02s.1-.06.15-.08c0,0,.02,0,.03-.01.05-.02.1-.04.15-.06,0,0,.02,0,.03-.01l.02-.04Z"/>
      <path class="cls-1" d="M54.26,29.07s.09.05.13.07c0,0,.03.02.04.02.04.03.08.05.12.08.02,0,.03.02.04.03.03.03.07.06.1.09.02.01.03.03.05.05.03.03.06.06.09.09.02.02.03.04.05.06.03.03.05.06.08.1.02.02.03.05.05.07.02.03.04.07.06.1s.03.06.04.09c.02.03.04.07.05.11,0,.03.03.07.04.1,0,.04.03.07.04.11,0,.04.02.08.03.12,0,.04.02.07.03.11,0,.04.02.09.02.14,0,.04,0,.07.02.11v.56c0,.1,0,.19,0,.28v.09c0,.06,0,.12-.03.18,0,.03,0,.06-.02.09,0,.05-.02.11-.04.16,0,.03-.02.05-.02.08,0,.05-.03.1-.05.15,0,.02-.02.04-.03.06-.02.05-.04.1-.07.15,0,.02,0,.03-.02.04-.03.05-.06.11-.1.16h0c-.35.53-.88.79-1.48.84l-8.78-.18h0c-.53,0-1.03.34-1.25.88-.23.53-.11,1.12.25,1.5h0l6.3,6.12c.39.46.57,1.03.45,1.63v.02c0,.06-.03.12-.05.18,0,0,0,.03-.02.05-.02.05-.04.1-.06.15,0,.02-.02.04-.03.06-.02.05-.05.09-.07.14,0,.03-.02.05-.04.07-.03.04-.06.09-.09.13,0,.03-.03.05-.05.08-.03.05-.07.1-.11.14-.02.02-.03.04-.05.07-.06.07-.12.14-.19.21-.07.08-.13.14-.2.21-.02.02-.05.04-.07.06-.04.04-.09.08-.13.12-.03.02-.06.04-.09.06-.04.03-.08.06-.12.09-.03.02-.06.04-.1.06-.03.02-.07.05-.11.06-.04.02-.07.03-.1.05s-.07.03-.1.05-.07.03-.11.04c-.03,0-.06.02-.09.03-.04,0-.08.02-.12.03-.03,0-.06,0-.08.02-.04,0-.08,0-.12.02h-.28s-.09,0-.13,0h-.05s-.09-.02-.14-.03c0,0-.03,0-.05,0-.05,0-.1-.03-.15-.04,0,0-.02,0-.04,0-.05-.02-.1-.04-.15-.06,0,0-.02,0-.03,0-.05-.03-.1-.05-.15-.08h-.02s-.1-.07-.15-.1h0s-.11-.08-.16-.12h0l-.16-.16-.11-.1s-.09-.09-.13-.14l-10.21-10.21-.08-.08-.77-.78-.02-.02-.45-.45s-.66-.68-.18-1.77l.23-.56.11-.27.11-.27.23-.56c.44-1.1,1.39-1.12,1.39-1.12h1.87l14.44.09h.56c.07.02.13.03.2.04h0c.06.01.12.03.18.04h.02s.11.03.16.05c0,0,.02,0,.03.01.05.02.1.04.15.06,0,0,.02,0,.03.02h.02Z"/>
      <path class="cls-1" d="M45.49,47.47s.03.1.04.15c0,0,0,.03,0,.04,0,.05.02.09.03.14v.05s0,.09,0,.14v.27s0,.08-.02.12c0,.03,0,.05-.02.08,0,.04-.02.08-.03.12,0,.03-.02.06-.03.09,0,.04-.02.07-.04.11,0,.03-.03.07-.05.1s-.03.07-.05.1c-.02.04-.04.07-.06.11-.02.03-.04.06-.06.1-.03.04-.06.08-.09.12-.02.03-.04.06-.07.09-.04.04-.08.09-.12.13-.02.02-.04.05-.06.07-.07.07-.14.13-.21.2s-.14.13-.21.19c-.02.02-.05.04-.07.05-.05.04-.1.08-.14.11-.03.02-.05.03-.08.05-.05.03-.09.06-.14.09-.02,0-.05.03-.08.04-.05.02-.09.05-.14.07-.02,0-.04.02-.06.03-.05.02-.1.04-.15.06,0,0-.03,0-.05.02-.06.02-.12.03-.18.05h-.02c-.61.12-1.18-.07-1.63-.46l-6.08-6.34h0c-.38-.37-.97-.48-1.5-.26-.53.21-.87.71-.88,1.24h0l.12,8.78c-.05.6-.32,1.13-.84,1.47h0s-.1.07-.16.09c-.02,0-.03.02-.04.02-.05.02-.1.05-.15.07-.02,0-.04.02-.06.02-.05.02-.1.03-.15.05-.03,0-.05.02-.08.02-.05,0-.1.02-.15.03-.03,0-.06,0-.09.02-.06,0-.12.02-.18.02h-.09c-.09,0-.19,0-.29,0h-.38c-.06,0-.12,0-.18,0-.04,0-.07,0-.11-.02-.05,0-.1,0-.14-.02-.04,0-.08-.02-.11-.03-.04,0-.08-.02-.12-.03s-.07-.02-.11-.04c-.03,0-.07-.02-.1-.04-.04-.02-.07-.03-.11-.05-.03,0-.06-.03-.09-.04-.04-.02-.07-.04-.1-.06s-.05-.03-.07-.05c-.03-.02-.07-.05-.1-.08-.02-.02-.04-.03-.06-.05-.03-.03-.06-.06-.09-.09-.01-.02-.03-.03-.05-.05-.03-.03-.06-.07-.09-.1,0-.02-.02-.03-.03-.04-.03-.04-.05-.08-.08-.12,0,0-.02-.03-.02-.04-.03-.04-.05-.09-.07-.13,0,0-.01-.02-.02-.04-.02-.05-.04-.1-.06-.15v-.03s-.03-.11-.05-.17v-.02c-.01-.06-.03-.12-.04-.18h0c-.01-.07-.02-.14-.03-.2h-.01v-16.88s.02-.95,1.12-1.38l.56-.23.27-.11.27-.11.56-.23c1.09-.47,1.77.2,1.77.2l.44.45s.02,0,.02.02l.77.78.08.09,10.15,10.27s.1.09.14.13l.1.11.16.16h0c.04.06.08.11.12.16h0s.07.1.1.15v.02s.06.1.08.15c0,0,0,.02,0,.02.02.05.04.1.06.15,0,0,0,.02,0,.04l.03.05Z"/>
      <path class="cls-1" d="M26.28,54.28s-.05.09-.07.13c0,0-.02.03-.02.04-.02.04-.05.08-.08.12,0,.02-.02.03-.03.05-.03.04-.06.07-.09.1-.01.02-.03.03-.04.05-.03.03-.06.06-.09.09-.02.02-.04.03-.06.05-.03.03-.07.05-.1.07s-.05.03-.07.04c-.03.02-.07.04-.1.06s-.06.03-.09.04c-.04.02-.07.03-.11.05-.03,0-.07.03-.1.04-.04,0-.07.03-.11.04-.04,0-.08.02-.12.03-.04,0-.07.02-.11.03-.05,0-.1,0-.14.02-.04,0-.07,0-.11.02-.06,0-.12,0-.18,0h-.38c-.1,0-.19,0-.29,0-.03,0-.06,0-.08,0-.06,0-.12,0-.18-.02-.03,0-.06,0-.09-.02-.05,0-.11-.02-.16-.04-.03,0-.05,0-.08-.02-.05-.02-.1-.03-.15-.05-.02,0-.04-.02-.06-.03-.05-.02-.1-.04-.15-.07-.01,0-.03-.02-.04-.02-.05-.03-.11-.06-.16-.09h-.02c-.52-.34-.79-.88-.83-1.48l.18-8.78h0c-.01-.53-.34-1.03-.88-1.25-.53-.22-1.11-.11-1.5.25h0l-6.12,6.3c-.46.39-1.03.58-1.64.45h-.02c-.06,0-.12-.03-.18-.05-.02,0-.03,0-.05-.02-.05-.02-.1-.04-.15-.06-.02,0-.04-.02-.06-.03-.05-.02-.09-.04-.14-.07-.02,0-.05-.03-.07-.04-.05-.03-.09-.05-.13-.09-.03-.02-.05-.03-.08-.05-.05-.04-.09-.07-.14-.11-.02-.02-.05-.04-.07-.05-.07-.06-.14-.12-.21-.19s-.14-.13-.21-.2c-.02-.02-.04-.05-.06-.07-.04-.04-.08-.09-.12-.13-.02-.03-.04-.06-.07-.09-.03-.04-.06-.08-.09-.12-.02-.03-.04-.07-.06-.1-.02-.04-.04-.07-.06-.11s-.04-.07-.05-.11c-.02-.03-.03-.07-.05-.1-.01-.04-.03-.07-.04-.11,0-.03-.02-.06-.03-.09l-.03-.12s-.01-.05-.02-.08c0-.04-.01-.08-.02-.12v-.26s0-.09.01-.13v-.05s.02-.09.03-.14c0-.02,0-.03.01-.05.01-.05.03-.1.04-.14,0,0,0-.02.01-.04.02-.05.04-.1.06-.15,0,0,0-.02.01-.02.03-.05.05-.1.08-.15v-.02s.07-.1.1-.15h0s.08-.1.12-.15h0l.16-.16.1-.11s.09-.09.14-.13l10.22-10.21.08-.08.77-.77s.01,0,.02-.02l.45-.45s.69-.66,1.77-.18l.56.23.27.11.27.11.56.23c1.1.44,1.11,1.39,1.11,1.39v1.87l-.09,14.44v.57h-.01c0,.07-.01.13-.02.19h0c-.01.06-.02.12-.04.18v.02c-.01.06-.03.11-.05.16v.03s-.04.1-.06.15c0,0-.01.02-.02.03v-.03Z"/>
      <path class="cls-1" d="M7.88,45.51s-.1.03-.14.04c-.01,0-.03,0-.04,0-.05,0-.09.02-.14.03h-.06s-.09,0-.14,0h-.27s-.08,0-.12-.02c-.03,0-.06,0-.08-.02-.04,0-.08-.02-.12-.03-.03,0-.06-.02-.09-.03-.04,0-.07-.02-.11-.04-.03,0-.07-.03-.1-.05-.03-.02-.07-.03-.1-.05-.04-.02-.07-.04-.11-.07-.03-.02-.06-.04-.1-.06-.04-.03-.08-.06-.12-.09-.03-.02-.06-.04-.09-.07-.04-.04-.09-.08-.13-.12-.02-.02-.05-.04-.07-.06-.07-.07-.13-.14-.2-.21-.07-.07-.13-.14-.19-.21-.02-.02-.03-.05-.05-.07-.04-.05-.08-.1-.11-.14-.02-.03-.03-.05-.05-.08-.03-.04-.06-.09-.09-.13-.01-.03-.03-.05-.04-.08-.02-.05-.05-.09-.07-.14-.01-.02-.02-.04-.03-.06-.02-.05-.04-.1-.06-.15,0-.02-.01-.03-.01-.05-.02-.06-.03-.12-.05-.18v-.02c-.12-.61.07-1.18.46-1.63l6.34-6.08h0c.37-.38.48-.97.26-1.5-.22-.53-.71-.87-1.24-.88h0l-8.78.12c-.6-.05-1.13-.32-1.48-.84H.36c-.03-.06-.06-.11-.09-.17,0,0,0-.03-.02-.04-.02-.05-.05-.1-.07-.15,0-.02-.02-.04-.02-.07-.02-.05-.03-.1-.05-.15,0-.03-.02-.05-.02-.08,0-.05-.03-.1-.03-.16,0-.03,0-.06-.02-.09,0-.06-.02-.12-.02-.18v-.09c0-.09-.01-.19-.01-.28v-.38c0-.06,0-.12,0-.18,0-.04,0-.07.02-.11,0-.05,0-.1.02-.14,0-.04.02-.07.03-.11,0-.04.02-.08.03-.12s.02-.07.04-.11c.01-.03.02-.07.04-.1.02-.04.03-.07.05-.11.02-.03.03-.06.04-.09.02-.04.04-.07.06-.1,0-.02.03-.05.05-.07.02-.03.05-.07.08-.1.02-.02.03-.04.05-.06.03-.03.06-.06.09-.09.02-.02.03-.03.05-.04.03-.03.07-.06.1-.09,0-.01.03-.02.04-.03.04-.03.08-.05.12-.08,0,0,.03-.01.04-.02.04-.03.09-.05.13-.07,0,0,.02,0,.03-.02.05-.02.1-.04.15-.06h.03s.11-.04.16-.05h.02c.06-.01.12-.03.18-.04h0c.07,0,.13-.02.19-.02h.22s.15-.01.15-.01h16.5s.95.02,1.39,1.13l.23.56.11.27.11.27.23.56c.47,1.09-.2,1.77-.2,1.77l-.45.45s-.01,0-.02.02l-.78.77-.09.08-10.27,10.15s-.09.1-.13.14l-.11.1-.16.16h0c-.05.03-.1.07-.15.11h0c-.05.04-.1.07-.16.1h-.02c-.05.03-.1.06-.15.08,0,0-.02,0-.02,0-.05.02-.1.04-.15.06-.01,0-.02,0-.04,0h-.02Z"/>
      <path class="cls-1" d="M1.07,26.3s-.09-.04-.13-.07c0,0-.03-.02-.04-.02-.04-.03-.08-.05-.12-.08-.02-.01-.03-.02-.04-.03-.04-.03-.07-.06-.1-.09-.02-.02-.03-.03-.05-.04-.03-.03-.06-.06-.09-.09-.02-.02-.03-.04-.05-.06-.03-.03-.05-.07-.07-.1-.02-.02-.03-.05-.05-.07-.02-.03-.04-.07-.06-.1s-.03-.06-.04-.09c-.02-.04-.03-.07-.05-.11-.01-.03-.02-.07-.04-.1-.01-.04-.03-.07-.04-.11,0-.04-.02-.08-.03-.12,0-.04-.02-.07-.03-.11,0-.05,0-.1-.02-.14,0-.04-.01-.07-.01-.11,0-.06,0-.12,0-.18v-.38c0-.1,0-.19,0-.28v-.09c0-.06.02-.12.02-.18,0-.03.01-.06.02-.09,0-.05.02-.11.04-.16,0-.03.02-.05.02-.08.02-.05.03-.1.05-.15,0-.02.02-.04.03-.07.02-.05.04-.1.07-.15,0-.02.02-.03.02-.04.03-.06.06-.11.09-.16v-.02c.34-.52.88-.78,1.48-.83l8.78.18h0c.53-.01,1.03-.34,1.25-.88.23-.53.11-1.12-.25-1.5h0l-6.3-6.12c-.39-.46-.58-1.03-.45-1.64v-.02c.01-.06.03-.12.05-.18,0-.02,0-.03.02-.05.02-.05.04-.1.06-.15,0-.02.02-.04.03-.06.02-.05.05-.09.07-.14.01-.03.03-.05.04-.08.03-.04.06-.09.09-.13.02-.03.03-.05.05-.08.03-.05.07-.1.11-.14.02-.02.03-.05.05-.07.06-.07.13-.14.19-.21.07-.08.13-.14.2-.21.02-.02.05-.04.07-.06.04-.04.09-.08.13-.12.03-.02.06-.04.09-.07.04-.03.08-.06.12-.08.03-.02.06-.04.1-.06s.07-.04.11-.06.07-.03.11-.05c.03-.02.07-.03.1-.05.04-.01.08-.03.11-.04.03,0,.06-.02.09-.03.04-.01.08-.02.12-.03.03,0,.06-.01.08-.02.04,0,.08-.01.12-.02h.27s.09,0,.14.01h.06c.05,0,.09.02.14.03.02,0,.03,0,.04.01.05.01.1.03.14.04.01,0,.02,0,.04.01.05.02.1.04.15.06,0,0,.02,0,.03.01.05.03.1.05.15.08h.02c.05.03.1.07.15.1h0c.05.04.1.08.15.12h0l.16.15.11.1s.09.09.13.14l10.21,10.21.08.08.77.77.02.02.45.45s.66.69.18,1.77l-.23.56-.11.27-.11.27-.23.56c-.44,1.1-1.39,1.12-1.39,1.12h-1.87l-14.44-.09h-.56c-.07-.01-.13-.03-.19-.04h0c-.06-.01-.12-.02-.18-.04h-.02s-.11-.03-.16-.05h-.03s-.1-.04-.15-.06c0,0-.02-.01-.04-.02v.03Z"/>
      <path class="cls-1" d="M9.84,7.9s-.03-.1-.04-.15c0-.01,0-.03-.01-.05,0-.04-.02-.09-.03-.14v-.45s0-.08.02-.12c0-.03.01-.05.02-.08,0-.04.02-.08.03-.12,0-.03.02-.06.03-.09.01-.04.03-.07.04-.11.01-.03.03-.07.05-.1.02-.03.03-.07.05-.1.02-.04.04-.07.06-.11.02-.03.04-.06.06-.1s.06-.08.09-.12c.02-.03.04-.06.07-.09.04-.04.08-.09.12-.13.02-.02.04-.05.06-.07.07-.07.14-.13.21-.2.07-.07.14-.13.21-.19.02-.02.05-.04.07-.05.05-.04.1-.08.14-.11.03-.02.05-.03.08-.05.04-.03.09-.06.13-.09.02-.01.05-.03.07-.04.05-.02.09-.05.14-.07.02,0,.04-.02.06-.03.05-.02.1-.04.15-.06.02,0,.03-.01.05-.02.06-.02.12-.03.18-.05h.02c.61-.12,1.18.07,1.63.46l6.08,6.33h0c.38.37.97.48,1.5.26.53-.21.87-.71.88-1.24h0l-.12-8.78c.05-.6.32-1.13.84-1.47h.02s.1-.06.16-.09c.01,0,.03,0,.04-.02.05-.02.1-.05.15-.07.02,0,.04-.02.07-.03.05-.02.1-.03.15-.05.03,0,.05-.02.08-.02.05,0,.1-.02.16-.03.03,0,.06,0,.09-.02.06,0,.12-.02.18-.02.03,0,.05,0,.09,0,.09,0,.18,0,.28,0h.38c.06,0,.12,0,.18,0,.04,0,.07,0,.11.02.05,0,.1,0,.14.02.04,0,.08.02.11.03.04,0,.08.02.12.03s.07.02.11.04c.03.01.07.02.1.04.04.02.07.03.11.05.03.01.06.03.09.04.04.02.07.04.11.06.02,0,.05.03.07.05.03.02.07.05.1.08.02.02.04.03.06.05.03.03.06.06.09.09.02.02.03.03.04.05.03.03.06.07.09.1.01.02.02.03.03.05.03.04.06.08.08.12,0,0,.02.03.03.04.03.04.05.09.07.13,0,0,.01.02.01.03.02.05.04.1.06.15v.03s.04.11.05.16v.02c.02.06.03.12.04.18h0c.01.06.02.13.02.19h.01v16.87s-.02.95-1.12,1.38l-.56.23-.27.11-.27.11-.56.23c-1.09.47-1.77-.2-1.77-.2l-.44-.45-.02-.02-.77-.78-.08-.08-10.15-10.27s-.1-.09-.14-.13l-.1-.11-.16-.16h.01c-.04-.06-.08-.11-.12-.16h0c-.04-.05-.07-.1-.1-.16,0,0,0-.01-.01-.02-.03-.05-.06-.1-.08-.15,0,0,0-.02-.02-.03-.02-.05-.04-.1-.06-.15v-.04l-.03.02Z"/>
    </g>
  </g>
</svg>